<?xml version="1.0" encoding="utf-8"?><svg viewBox="0 0 496 512" xmlns="http://www.w3.org/2000/svg" xmlns:xlink="http://www.w3.org/1999/xlink"><style>:root>svg{display:none}:root>svg:target{display:block}</style><svg viewBox="0 0 384 512" id="apple" xmlns="http://www.w3.org/2000/svg"><!--! Font Awesome Free 6.1.1 by @fontawesome - https://fontawesome.com License - https://fontawesome.com/license/free (Icons: CC BY 4.0, Fonts: SIL OFL 1.1, Code: MIT License) Copyright 2022 Fonticons, Inc.--><path d="M318.7 268.7c-.2-36.7 16.4-64.4 50-84.8-18.8-26.9-47.2-41.7-84.7-44.6-35.5-2.8-74.3 20.7-88.5 20.7-15 0-49.4-19.7-76.4-19.7C63.3 141.2 4 184.8 4 273.5q0 39.3 14.4 81.2c12.8 36.7 59 126.7 107.2 125.2 25.2-.6 43-17.9 75.8-17.9 31.8 0 48.3 17.9 76.4 17.9 48.6-.7 90.4-82.5 102.6-119.3-65.2-30.7-61.7-90-61.7-91.9zm-56.6-164.2c27.3-32.4 24.8-61.9 24-72.5-24.1 1.4-52 16.4-67.9 34.9-17.5 19.8-27.8 44.3-25.6 71.9 26.1 2 49.9-11.4 69.5-34.3z"/></svg><svg fill="none" viewBox="0 0 48 48" id="chevron-down" xmlns="http://www.w3.org/2000/svg"><path d="M12 18l12 12 12-12" stroke="#fff" stroke-width="2" stroke-linecap="round" stroke-linejoin="round"/></svg><svg fill="none" viewBox="0 0 16 28" id="facebook-icon" xmlns="http://www.w3.org/2000/svg"><path d="M14.235 15.75l.777-5.067h-4.853V7.394c0-1.386.678-2.737 2.851-2.737h2.206V.342S13.214 0 11.3 0C7.304 0 4.692 2.427 4.692 6.82v3.863H.25v5.067h4.442V28h5.467V15.75h4.076z" fill="#fff"/></svg><svg viewBox="0 0 448 512" id="facebook-square" xmlns="http://www.w3.org/2000/svg"><!--! Font Awesome Free 6.1.1 by @fontawesome - https://fontawesome.com License - https://fontawesome.com/license/free (Icons: CC BY 4.0, Fonts: SIL OFL 1.1, Code: MIT License) Copyright 2022 Fonticons, Inc.--><path d="M400 32H48A48 48 0 000 80v352a48 48 0 0048 48h137.25V327.69h-63V256h63v-54.64c0-62.15 37-96.48 93.67-96.48 27.14 0 55.52 4.84 55.52 4.84v61h-31.27c-30.81 0-40.42 19.12-40.42 38.73V256h68.78l-11 71.69h-57.78V480H400a48 48 0 0048-48V80a48 48 0 00-48-48z"/></svg><svg fill="none" viewBox="0 0 28 27" id="github-icon" xmlns="http://www.w3.org/2000/svg"><path d="M9.087 21.733c0 .11-.126.197-.285.197-.18.016-.306-.071-.306-.197 0-.11.126-.197.284-.197.165-.017.307.071.307.197zm-1.703-.246c-.039.11.07.235.235.268.143.054.307 0 .34-.11.033-.11-.071-.235-.236-.284-.142-.038-.301.016-.34.126zm2.42-.093c-.158.038-.268.142-.251.268.016.11.159.18.323.142.159-.038.268-.142.252-.252-.017-.104-.164-.175-.323-.158zM13.41.438C5.812.438 0 6.196 0 13.78c0 6.065 3.823 11.255 9.284 13.082.701.125.948-.307.948-.662 0-.34-.016-2.21-.016-3.358 0 0-3.835.82-4.64-1.63 0 0-.624-1.591-1.523-2.001 0 0-1.254-.859.088-.843 0 0 1.364.11 2.114 1.412 1.2 2.11 3.21 1.503 3.993 1.142.126-.875.482-1.482.877-1.842-3.062-.34-6.151-.783-6.151-6.043 0-1.504.416-2.26 1.292-3.222-.142-.355-.608-1.82.143-3.713 1.144-.355 3.78 1.477 3.78 1.477a12.889 12.889 0 013.439-.465c1.167 0 2.344.158 3.44.465 0 0 2.634-1.838 3.78-1.477.75 1.898.284 3.358.142 3.713.876.968 1.413 1.723 1.413 3.221 0 5.278-3.226 5.699-6.288 6.043.504.433.93 1.253.93 2.538 0 1.843-.016 4.123-.016 4.572 0 .355.253.787.948.662 5.478-1.816 9.191-7.006 9.191-13.07 0-7.586-6.162-13.345-13.76-13.345zM5.324 19.299c-.071.055-.055.18.038.285.088.087.214.125.285.054.071-.054.055-.18-.038-.284-.088-.088-.214-.126-.285-.055zm-.591-.443c-.039.071.016.159.126.213.087.055.197.039.235-.038.038-.07-.016-.158-.126-.213-.11-.033-.197-.016-.235.038zm1.774 1.947c-.087.071-.055.235.071.34.126.125.285.141.356.054.072-.071.039-.235-.07-.34-.121-.125-.286-.141-.357-.054zM5.883 20c-.088.055-.088.197 0 .323.087.126.235.18.307.126.087-.071.087-.214 0-.34-.077-.125-.22-.18-.307-.109z" fill="#fff"/></svg><svg fill="none" viewBox="0 0 25 27" id="instagram-icon" xmlns="http://www.w3.org/2000/svg"><path d="M12.204 7.071c-3.464 0-6.257 2.937-6.257 6.578 0 3.64 2.793 6.577 6.257 6.577 3.463 0 6.256-2.937 6.256-6.577 0-3.641-2.793-6.578-6.256-6.578zm0 10.854c-2.238 0-4.068-1.918-4.068-4.276 0-2.359 1.824-4.276 4.068-4.276 2.243 0 4.067 1.917 4.067 4.276 0 2.358-1.83 4.276-4.067 4.276zm7.972-11.123c0 .853-.654 1.534-1.46 1.534-.81 0-1.459-.686-1.459-1.534 0-.847.653-1.534 1.46-1.534.805 0 1.459.687 1.459 1.534zM24.32 8.36c-.093-2.055-.54-3.875-1.971-5.375-1.427-1.5-3.159-1.969-5.114-2.072-2.015-.12-8.054-.12-10.069 0-1.949.097-3.68.567-5.113 2.066C.621 4.478.18 6.298.082 8.354c-.114 2.118-.114 8.466 0 10.584.092 2.055.539 3.875 1.971 5.375s3.159 1.97 5.114 2.072c2.014.12 8.053.12 10.068 0 1.955-.097 3.687-.566 5.114-2.072 1.426-1.5 1.873-3.32 1.97-5.375.115-2.118.115-8.46 0-10.579zm-2.603 12.852c-.425 1.122-1.247 1.986-2.32 2.438-1.606.67-5.418.515-7.193.515-1.776 0-5.593.15-7.194-.515-1.067-.446-1.89-1.31-2.32-2.438-.637-1.69-.49-5.696-.49-7.562 0-1.866-.141-5.88.49-7.562.425-1.122 1.247-1.987 2.32-2.439 1.607-.67 5.418-.515 7.194-.515 1.775 0 5.592-.149 7.193.515 1.068.447 1.89 1.311 2.32 2.439.637 1.688.49 5.696.49 7.562 0 1.866.147 5.879-.49 7.562z" fill="#fff"/></svg><svg viewBox="0 0 448 512" id="linkedin" xmlns="http://www.w3.org/2000/svg"><!--! Font Awesome Free 6.1.1 by @fontawesome - https://fontawesome.com License - https://fontawesome.com/license/free (Icons: CC BY 4.0, Fonts: SIL OFL 1.1, Code: MIT License) Copyright 2022 Fonticons, Inc.--><path d="M416 32H31.9C14.3 32 0 46.5 0 64.3v383.4C0 465.5 14.3 480 31.9 480H416c17.6 0 32-14.5 32-32.3V64.3c0-17.8-14.4-32.3-32-32.3zM135.4 416H69V202.2h66.5V416zm-33.2-243c-21.3 0-38.5-17.3-38.5-38.5S80.9 96 102.2 96c21.2 0 38.5 17.3 38.5 38.5 0 21.3-17.2 38.5-38.5 38.5zm282.1 243h-66.4V312c0-24.8-.5-56.7-34.5-56.7-34.6 0-39.9 27-39.9 54.9V416h-66.4V202.2h63.7v29.2h.9c8.9-16.8 30.6-34.5 62.9-34.5 67.2 0 79.7 44.3 79.7 101.9V416z"/></svg><svg fill="none" viewBox="0 0 25 25" id="linkedin-icon" xmlns="http://www.w3.org/2000/svg"><path d="M5.523 24.5H.408V8.143h5.115V24.5zM2.963 5.912A2.976 2.976 0 010 2.942c0-.78.312-1.528.868-2.08a2.973 2.973 0 014.19 0c.555.552.867 1.3.867 2.08a2.977 2.977 0 01-2.963 2.97zM24.667 24.5h-5.104v-7.962c0-1.898-.04-4.331-2.66-4.331-2.66 0-3.067 2.061-3.067 4.194v8.1h-5.11V8.142h4.906v2.232h.072c.683-1.286 2.35-2.642 4.84-2.642 5.177 0 6.128 3.385 6.128 7.782V24.5h-.005z" fill="#fff"/></svg><svg viewBox="0 0 496 512" id="telegram" xmlns="http://www.w3.org/2000/svg"><!--! Font Awesome Free 6.1.1 by @fontawesome - https://fontawesome.com License - https://fontawesome.com/license/free (Icons: CC BY 4.0, Fonts: SIL OFL 1.1, Code: MIT License) Copyright 2022 Fonticons, Inc.--><path d="M248 8C111.033 8 0 119.033 0 256s111.033 248 248 248 248-111.033 248-248S384.967 8 248 8zm114.952 168.66c-3.732 39.215-19.881 134.378-28.1 178.3-3.476 18.584-10.322 24.816-16.948 25.425-14.4 1.326-25.338-9.517-39.287-18.661-21.827-14.308-34.158-23.215-55.346-37.177-24.485-16.135-8.612-25 5.342-39.5 3.652-3.793 67.107-61.51 68.335-66.746.153-.655.3-3.1-1.154-4.384s-3.59-.849-5.135-.5q-3.283.746-104.608 69.142-14.845 10.194-26.894 9.934c-8.855-.191-25.888-5.006-38.551-9.123-15.531-5.048-27.875-7.717-26.8-16.291q.84-6.7 18.45-13.7 108.446-47.248 144.628-62.3c68.872-28.647 83.183-33.623 92.511-33.789 2.052-.034 6.639.474 9.61 2.885a10.452 10.452 0 013.53 6.716 43.765 43.765 0 01.417 9.769z"/></svg><svg viewBox="0 0 448 512" id="tumblr-square" xmlns="http://www.w3.org/2000/svg"><!--! Font Awesome Free 6.1.1 by @fontawesome - https://fontawesome.com License - https://fontawesome.com/license/free (Icons: CC BY 4.0, Fonts: SIL OFL 1.1, Code: MIT License) Copyright 2022 Fonticons, Inc.--><path d="M400 32H48C21.5 32 0 53.5 0 80v352c0 26.5 21.5 48 48 48h352c26.5 0 48-21.5 48-48V80c0-26.5-21.5-48-48-48zm-82.3 364.2c-8.5 9.1-31.2 19.8-60.9 19.8-75.5 0-91.9-55.5-91.9-87.9v-90h-29.7c-3.4 0-6.2-2.8-6.2-6.2v-42.5c0-4.5 2.8-8.5 7.1-10 38.8-13.7 50.9-47.5 52.7-73.2.5-6.9 4.1-10.2 10-10.2h44.3c3.4 0 6.2 2.8 6.2 6.2v72h51.9c3.4 0 6.2 2.8 6.2 6.2v51.1c0 3.4-2.8 6.2-6.2 6.2h-52.1V321c0 21.4 14.8 33.5 42.5 22.4 3-1.2 5.6-2 8-1.4 2.2.5 3.6 2.1 4.6 4.9l13.8 40.2c1 3.2 2 6.7-.3 9.1z"/></svg><svg fill="none" viewBox="0 0 30 18" id="vk-icon" xmlns="http://www.w3.org/2000/svg"><path d="M28.769 1.437c.202-.684 0-1.187-.972-1.187h-3.218c-.819 0-1.196.432-1.398.913 0 0-1.639 3.998-3.955 6.59-.748.75-1.092.99-1.502.99-.202 0-.513-.24-.513-.924V1.437c0-.82-.23-1.187-.907-1.187h-5.058c-.513 0-.82.383-.82.738 0 .777 1.159.957 1.28 3.145V8.88c0 1.039-.187 1.23-.596 1.23-1.093 0-3.747-4.014-5.32-8.608C5.473.611 5.16.25 4.337.25H1.119C.202.25.016.682.016 1.163c0 .853 1.093 5.092 5.085 10.692 2.66 3.822 6.407 5.895 9.816 5.895 2.048 0 2.3-.46 2.3-1.252 0-3.654-.186-3.998.84-3.998.476 0 1.295.24 3.207 2.084 2.185 2.187 2.545 3.166 3.769 3.166h3.217c.918 0 1.382-.46 1.114-1.367-.612-1.909-4.747-5.835-4.932-6.098-.475-.612-.339-.886 0-1.433.005-.005 3.933-5.54 4.337-7.415z" fill="#fff"/></svg></svg>